<?xml version="1.0" encoding="utf-8"?>
<!-- Generator: Adobe Illustrator 24.3.0, SVG Export Plug-In . SVG Version: 6.00 Build 0)  -->
<svg version="1.1" id="Layer_1" xmlns="http://www.w3.org/2000/svg" xmlns:xlink="http://www.w3.org/1999/xlink" x="0px" y="0px"
	 viewBox="0 0 1024 1024" style="enable-background:new 0 0 1024 1024;" xml:space="preserve">
<style type="text/css">
	.st0{fill:#FFFFFF;}
	.st1{fill:#F8064D;}
</style>
<circle class="st0" cx="512" cy="512" r="512"/>
<path class="st1" d="M234.4,491.7c2.2-122.5,58.4-218.9,146.5-299.6c32.1-29.5,33-28.9,69.8-7.1c17.3,10.2,34.2,21.2,50.2,33.2
	c8.7,6.5,14.6,6.1,22.6-0.4c23-18.5,49.2-32.5,74.5-47.6c6.5-3.9,12.4-6.9,19.9-0.6C695.8,234,757,310.5,779.6,410.7
	c33,146.7-17.5,265.9-127.8,362.9c-38,33.4-81,59.4-126.9,80.6c-7.5,3.5-14.2,5.5-22.6,1.6c-103.7-48.8-189-116.8-238-223.6
	C244,587.9,234.2,540.9,234.4,491.7z M283.2,494.3c1.2,13.6,1.8,26.4,3.5,38.9c1.4,10.6,3.5,21.2,6.3,31.5
	c30.7,114.1,108.6,186.3,210.5,237.4c8.1,3.9,13.8,1.8,20.7-1.6c29.5-14.8,57.2-31.9,83.2-52.3c177.8-139.8,174.7-366.2,7.9-517.1
	c-5.9-5.3-10.6-8.5-19.1-3.1c-60.4,38-113.7,83.2-149.5,146.1C390.2,474,410.8,582,498.9,651.4c6.7,5.1,12,12,22.2,3.5
	c50.5-41.1,85-90.9,87.1-158.3c2-57.6-19.5-107.4-51.5-153.4c-17.9-25.8-17.9-25.8,7.5-45.2c1-0.8,2.2-1.6,3.1-2.6
	c6.3-6.3,11-4.9,16.3,1.8c56.5,72.4,87.1,152.2,68.3,245.3c-12.4,60.6-48,107.4-95.2,145c-52.7,41.9-37,41.7-88.1,0.8
	c-103.3-82.4-129.2-196.7-74.2-316.5c17.3-37.6,41.5-70.2,69-100.9c3.5-3.9,14.4-8.3,4.9-15.3c-14.4-10.8-29.9-20.3-45-30.1
	c-5.3-3.3-8.7,1.2-12,4.3C332.7,300.9,285.1,387.1,283.2,494.3z"/>
</svg>
