<?xml version="1.0" encoding="utf-8"?>
<!-- Generator: Adobe Illustrator 24.3.0, SVG Export Plug-In . SVG Version: 6.00 Build 0)  -->
<svg version="1.1" id="Layer_1" xmlns="http://www.w3.org/2000/svg" xmlns:xlink="http://www.w3.org/1999/xlink" x="0px" y="0px"
	 viewBox="0 0 500 500" style="enable-background:new 0 0 500 500;" xml:space="preserve">
<style type="text/css">
	.st0{fill:#F8064D;}
	.st1{fill:#4D4B4F;}
</style>
<g>
	<path class="st0" d="M107.8,165.5c1.1-62.3,29.7-111.3,74.5-152.3c16.3-15,16.8-14.7,35.5-3.6c8.8,5.2,17.4,10.8,25.5,16.9
		c4.4,3.3,7.4,3.1,11.5-0.2c11.7-9.4,25-16.5,37.9-24.2c3.3-2,6.3-3.5,10.1-0.3c39.6,32.7,70.7,71.6,82.2,122.5
		c16.8,74.6-8.9,135.2-65,184.5c-19.3,17-41.2,30.2-64.5,41c-3.8,1.8-7.2,2.8-11.5,0.8c-52.7-24.8-96.1-59.4-121-113.7
		C112.7,214.4,107.7,190.5,107.8,165.5z M132.6,166.8c0.6,6.9,0.9,13.4,1.8,19.8c0.7,5.4,1.8,10.8,3.2,16
		c15.6,58,55.2,94.7,107,120.7c4.1,2,7,0.9,10.5-0.8c15-7.5,29.1-16.2,42.3-26.6c90.4-71.1,88.8-186.2,4-262.9
		c-3-2.7-5.4-4.3-9.7-1.6c-30.7,19.3-57.8,42.3-76,74.3c-28.7,50.8-18.2,105.7,26.6,141c3.4,2.6,6.1,6.1,11.3,1.8
		c25.7-20.9,43.2-46.2,44.3-80.5c1-29.3-9.9-54.6-26.2-78c-9.1-13.1-9.1-13.1,3.8-23c0.5-0.4,1.1-0.8,1.6-1.3
		c3.2-3.2,5.6-2.5,8.3,0.9c28.7,36.8,44.3,77.4,34.7,124.7c-6.3,30.8-24.4,54.6-48.4,73.7c-26.8,21.3-18.8,21.2-44.8,0.4
		c-52.5-41.9-65.7-100-37.7-160.9c8.8-19.1,21.1-35.7,35.1-51.3c1.8-2,7.3-4.2,2.5-7.8c-7.3-5.5-15.2-10.3-22.9-15.3
		c-2.7-1.7-4.4,0.6-6.1,2.2C157.8,68.5,133.6,112.3,132.6,166.8z"/>
	<path class="st1" d="M136.2,449.2c0-5.4,0.3-10.9-0.1-16.3c-0.4-6.3,0.4-9.9,8.5-9.9c7.8,0,7.9,3.8,7.8,9.4
		c-0.2,10.5-0.3,21.1,0,31.6c0.4,13,7.2,20.8,17.6,21c10.5,0.2,17.4-7.6,17.8-20.6c0.4-11.2,0.4-22.5,0-33.7
		c-0.2-5.9,1.9-7.9,7.6-7.5c5,0.3,9.5-0.4,9.2,7.1c-0.5,12.6,0.3,25.2-0.4,37.8c-1,19.2-15,32-34.2,31.9
		c-19.3-0.1-32.6-12.8-33.6-32.4c-0.3-6.1-0.1-12.2-0.1-18.4C136.3,449.2,136.3,449.2,136.2,449.2z"/>
	<path class="st1" d="M404.9,460.3c0-10.2,0.1-20.4,0-30.7c0-3.8,0.4-6.7,5.4-6.5c10.9,0.4,21.9-0.3,32.7,0.7
		c14.6,1.4,23.9,11.4,24.1,24.5c0.2,13.4-9.5,23.7-24.2,25.7c-0.7,0.1-1.4,0.1-2,0.2c-6.1,0.3-13.6-1.4-17.9,1.5
		c-4.9,3.4-1.7,11.4-1.8,17.3c-0.1,6.5-4.2,5.8-8.3,5.7c-4.1,0-8.3,0.9-8.1-5.8C405.2,482.1,404.9,471.2,404.9,460.3z M430,459.4
		c9.5-0.3,19.7,0.6,19.7-10.6c0-11.2-10.5-9.8-18.5-10.7c-8.7-1-10.7,2.6-10.7,10.8C420.6,457.1,422.3,461.4,430,459.4z"/>
	<path class="st1" d="M64.2,423.2c7.8,0,15.7,0.3,23.5-0.1c5.8-0.3,7.8,1.6,7.7,7.4c-0.1,5.5-1.3,8.5-7.4,7.6
		c-2.3-0.3-4.8,0.2-7.1-0.1c-6.6-0.7-9.1,1.9-8.9,8.7c0.4,14.6-0.3,29.3,0.3,44c0.3,7.5-3,8.1-9,8.3c-6.5,0.2-8.1-2-8-8.2
		c0.4-14.3-0.3-28.6,0.3-42.9c0.3-7.7-2.2-10.7-9.8-9.7c-2.7,0.3-5.5-0.1-8.2,0.1c-5.8,0.4-5.5-3.6-5.5-7.5c0-3.9-0.2-7.6,5.5-7.5
		C46.4,423.4,55.3,423.2,64.2,423.2z"/>
	<path class="st1" d="M248.5,460.8c0-9.2,0.2-18.4-0.1-27.6c-0.1-5.9-0.4-10.1,8.1-10.3c9.1-0.1,8.7,4.6,8.6,10.8
		c-0.2,13.6,0.3,27.2-0.2,40.8c-0.2,6.9,1.6,10,9,9.4c6.8-0.6,13.6,0.2,20.4-0.2c6-0.4,8.5,1.4,8.4,7.9c-0.1,6.1-2.4,7.4-7.9,7.3
		c-12.9-0.3-25.9-0.3-38.8,0c-5.7,0.1-7.9-1.6-7.7-7.5C248.8,481.2,248.5,471,248.5,460.8z"/>
	<path class="st1" d="M359.6,460.2c0,9.9-0.2,19.7,0.1,29.6c0.2,5.9-0.4,9.5-8,9.3c-6.7-0.2-8.7-2.1-8.5-8.7
		c0.4-19.7,0.4-39.4,0-59.1c-0.1-6.2,1.6-8.1,8-8.2c6.8-0.1,8.9,2,8.6,8.7C359.3,441.2,359.6,450.7,359.6,460.2z"/>
</g>
</svg>
