<?xml version="1.0" encoding="utf-8"?>
<!-- Generator: Adobe Illustrator 24.3.0, SVG Export Plug-In . SVG Version: 6.00 Build 0)  -->
<svg version="1.1" id="Layer_1" xmlns="http://www.w3.org/2000/svg" xmlns:xlink="http://www.w3.org/1999/xlink" x="0px" y="0px"
	 viewBox="0 0 300 300" style="enable-background:new 0 0 300 300;" xml:space="preserve">
<g>
	<path d="M49.7,300c-9.7-0.6-19.1-0.2-28-2c-12.5-2.4-21.4-14.5-21.9-27.2c0-0.3,0-0.6,0-0.9c0-80.2-0.1-160.4,0-240.6
		C-0.1,13.8,12.2,0.4,27.5,0C48-0.5,68.6-0.1,89.7-0.1c0,1.3,0,2.5,0,3.7c0,24.9,0,49.7,0,74.6c0,13.3,8.3,21.5,21.7,21.5
		c25.6,0,51.2,0,76.8,0c13.1,0,21.4-8.4,21.4-21.5c0-24.9,0-49.7,0-74.6c0-1.1,0-2.3,0-3.6c7.4,0,14.7-0.2,21.9,0.1
		c1.9,0.1,4.1,1.6,5.6,3.1c19.7,19.6,39.3,39.2,59,58.9c2.3,2.3,3.5,5,3.5,8.4c0,66.3,0,132.5,0,198.8c0,17-13.1,30-30.1,30.2
		c-6.4,0.1-12.9,0-19.8,0c0-1.3,0-2.5,0-3.7c0-28.1,0-56.2,0-84.3c0-19.2-12.6-31.9-31.8-31.9c-45.3,0-90.7,0-136,0
		c-19.2,0-31.9,12.7-31.9,31.8c0,28,0,56,0,83.9C49.7,296.6,49.7,297.8,49.7,300z"/>
	<path d="M229.5,299.3c-53.4,0-106.4,0-159.8,0c0-1.2,0-2.3,0-3.4c0-28.2,0-56.4,0-84.6c0-8.1,3.7-11.8,11.9-11.8
		c45.3,0,90.7,0,136,0c8.1,0,11.9,3.8,11.9,11.8c0,28.2,0,56.4,0,84.6C229.5,296.9,229.5,298,229.5,299.3z"/>
	<path d="M109.8,79.5c0-26.6,0-53,0-79.5c26.5,0,52.9,0,79.5,0c0,26.4,0,52.8,0,79.5C162.9,79.5,136.5,79.5,109.8,79.5z"/>
</g>
</svg>
