<?xml version="1.0" encoding="utf-8"?>
<!-- Generator: Adobe Illustrator 24.3.0, SVG Export Plug-In . SVG Version: 6.00 Build 0)  -->
<svg version="1.1" id="Layer_1" xmlns="http://www.w3.org/2000/svg" xmlns:xlink="http://www.w3.org/1999/xlink" x="0px" y="0px"
	 viewBox="0 0 300 300" style="enable-background:new 0 0 300 300;" xml:space="preserve">
<path d="M300,152.1c-1.5,2.2-2.8,4.7-4.6,6.5c-25.3,25.6-54.2,46.1-87.9,59.3c-23,9-46.9,13.2-71.7,10.7
	c-19.4-1.9-37.8-7.6-55.4-15.8c-28.6-13.3-53.7-31.7-75.7-54.2c-1.9-1.9-3.1-4.4-4.6-6.5c0-1.2,0-2.3,0-3.5c1.5-2.2,2.8-4.7,4.6-6.5
	C30,116.4,58.8,95.9,92.5,82.7c23-9,46.9-13.2,71.7-10.7c19.4,1.9,37.8,7.6,55.4,15.8c28.6,13.3,53.7,31.7,75.7,54.2
	c1.9,1.9,3.1,4.4,4.6,6.5C300,149.7,300,150.9,300,152.1z M211.5,150.3c0-33.7-27.7-61.4-61.5-61.4c-33.8,0-61.5,27.6-61.5,61.4
	c0,33.7,27.7,61.4,61.5,61.4C183.8,211.7,211.5,184.1,211.5,150.3z"/>
<path d="M169.5,111.4c-13.2,11.3-12.1,25-7.7,33.5c5.7,11,16.4,15.5,30.8,13.1c-0.1,9.8-10.4,28-29,34c-18.9,6-40-1.3-50.5-17.9
	c-11.1-17.6-9-39.3,5.4-54.3C131.7,106,153.5,102.4,169.5,111.4z"/>
</svg>
